<?xml version="1.0" encoding="UTF-8"?>
<svg version="1.1" xmlns="http://www.w3.org/2000/svg" width="512" height="512">
<path d="M0 0 C28.38 0 56.76 0 86 0 C86 9.24 86 18.48 86 28 C95.24 28 104.48 28 114 28 C114 37.24 114 46.48 114 56 C123.24 56 132.48 56 142 56 C142 65.24 142 74.48 142 84 C151.24 84 160.48 84 170 84 C170 74.76 170 65.52 170 56 C179.24 56 188.48 56 198 56 C198 46.76 198 37.52 198 28 C207.24 28 216.48 28 226 28 C226 18.76 226 9.52 226 0 C254.38 0 282.76 0 312 0 C312 9.24 312 18.48 312 28 C321.24 28 330.48 28 340 28 C340 37.24 340 46.48 340 56 C349.57 56 359.14 56 369 56 C369 93.62 369 131.24 369 170 C359.43 170 349.86 170 340 170 C340 188.81 340 207.62 340 227 C330.76 227 321.52 227 312 227 C312 236.24 312 245.48 312 255 C302.76 255 293.52 255 284 255 C284 264.24 284 273.48 284 283 C274.43 283 264.86 283 255 283 C255 292.57 255 302.14 255 312 C245.76 312 236.52 312 227 312 C227 321.24 227 330.48 227 340 C217.76 340 208.52 340 199 340 C199 349.24 199 358.48 199 368 C189.76 368 180.52 368 171 368 C171 377.24 171 386.48 171 396 C161.1 396 151.2 396 141 396 C141 386.76 141 377.52 141 368 C131.76 368 122.52 368 113 368 C113 358.76 113 349.52 113 340 C103.76 340 94.52 340 85 340 C85 330.76 85 321.52 85 312 C75.76 312 66.52 312 57 312 C57 302.43 57 292.86 57 283 C47.43 283 37.86 283 28 283 C28 273.76 28 264.52 28 255 C18.76 255 9.52 255 0 255 C0 245.76 0 236.52 0 227 C-9.24 227 -18.48 227 -28 227 C-28 208.19 -28 189.38 -28 170 C-37.57 170 -47.14 170 -57 170 C-57 132.38 -57 94.76 -57 56 C-47.43 56 -37.86 56 -28 56 C-28 46.76 -28 37.52 -28 28 C-18.76 28 -9.52 28 0 28 C0 18.76 0 9.52 0 0 Z " fill="#FE3545" transform="translate(100,58)"/>
<path d="M0 0 C28.38 0 56.76 0 86 0 C86 9.24 86 18.48 86 28 C95.24 28 104.48 28 114 28 C114 37.24 114 46.48 114 56 C123.24 56 132.48 56 142 56 C142 65.24 142 74.48 142 84 C151.24 84 160.48 84 170 84 C170 74.76 170 65.52 170 56 C179.24 56 188.48 56 198 56 C198 46.76 198 37.52 198 28 C207.24 28 216.48 28 226 28 C226 18.76 226 9.52 226 0 C254.38 0 282.76 0 312 0 C312 9.24 312 18.48 312 28 C283.95 28 255.9 28 227 28 C227 37.57 227 47.14 227 57 C217.76 57 208.52 57 199 57 C199 66.24 199 75.48 199 85 C189.43 85 179.86 85 170 85 C170 94.24 170 103.48 170 113 C160.76 113 151.52 113 142 113 C142 103.76 142 94.52 142 85 C132.43 85 122.86 85 113 85 C113 75.76 113 66.52 113 57 C103.76 57 94.52 57 85 57 C85 47.43 85 37.86 85 28 C56.95 28 28.9 28 0 28 C0 18.76 0 9.52 0 0 Z " fill="#010000" transform="translate(100,58)"/>
<path d="M0 0 C9.24 0 18.48 0 28 0 C28 9.24 28 18.48 28 28 C37.57 28 47.14 28 57 28 C57 37.24 57 46.48 57 56 C66.24 56 75.48 56 85 56 C85 65.57 85 75.14 85 85 C94.24 85 103.48 85 113 85 C113 75.43 113 65.86 113 56 C122.24 56 131.48 56 141 56 C141 46.76 141 37.52 141 28 C150.57 28 160.14 28 170 28 C170 18.76 170 9.52 170 0 C179.24 0 188.48 0 198 0 C198 9.57 198 19.14 198 29 C188.76 29 179.52 29 170 29 C170 38.24 170 47.48 170 57 C160.76 57 151.52 57 142 57 C142 66.24 142 75.48 142 85 C132.76 85 123.52 85 114 85 C114 94.24 114 103.48 114 113 C104.1 113 94.2 113 84 113 C84 103.76 84 94.52 84 85 C74.76 85 65.52 85 56 85 C56 75.76 56 66.52 56 57 C46.76 57 37.52 57 28 57 C28 47.76 28 38.52 28 29 C18.76 29 9.52 29 0 29 C0 19.43 0 9.86 0 0 Z " fill="#020000" transform="translate(157,341)"/>
<path d="M0 0 C9.57 0 19.14 0 29 0 C29 37.62 29 75.24 29 114 C19.43 114 9.86 114 0 114 C0 76.38 0 38.76 0 0 Z " fill="#000000" transform="translate(440,114)"/>
<path d="M0 0 C9.57 0 19.14 0 29 0 C29 37.62 29 75.24 29 114 C19.43 114 9.86 114 0 114 C0 76.38 0 38.76 0 0 Z " fill="#000000" transform="translate(43,114)"/>
<path d="M0 0 C9.24 0 18.48 0 28 0 C28 18.81 28 37.62 28 57 C18.76 57 9.52 57 0 57 C0 66.24 0 75.48 0 85 C-9.24 85 -18.48 85 -28 85 C-28 94.24 -28 103.48 -28 113 C-37.57 113 -47.14 113 -57 113 C-57 103.76 -57 94.52 -57 85 C-47.76 85 -38.52 85 -29 85 C-29 75.43 -29 65.86 -29 56 C-19.43 56 -9.86 56 0 56 C0 37.52 0 19.04 0 0 Z " fill="#010000" transform="translate(412,228)"/>
<path d="M0 0 C9.24 0 18.48 0 28 0 C28 18.48 28 36.96 28 56 C37.57 56 47.14 56 57 56 C57 65.57 57 75.14 57 85 C66.24 85 75.48 85 85 85 C85 94.24 85 103.48 85 113 C75.43 113 65.86 113 56 113 C56 103.76 56 94.52 56 85 C46.76 85 37.52 85 28 85 C28 75.76 28 66.52 28 57 C18.76 57 9.52 57 0 57 C0 38.19 0 19.38 0 0 Z " fill="#010000" transform="translate(72,228)"/>
<path d="M0 0 C18.81 0 37.62 0 57 0 C57 9.57 57 19.14 57 29 C47.76 29 38.52 29 29 29 C29 38.24 29 47.48 29 57 C19.43 57 9.86 57 0 57 C0 38.19 0 19.38 0 0 Z " fill="#FEFAFB" transform="translate(100,114)"/>
<path d="M0 0 C9.24 0 18.48 0 28 0 C28 9.24 28 18.48 28 28 C18.76 28 9.52 28 0 28 C0 18.76 0 9.52 0 0 Z " fill="#000000" transform="translate(412,86)"/>
<path d="M0 0 C9.24 0 18.48 0 28 0 C28 9.24 28 18.48 28 28 C18.76 28 9.52 28 0 28 C0 18.76 0 9.52 0 0 Z " fill="#000000" transform="translate(72,86)"/>
</svg>
